<svg width="489" height="197" viewBox="0 0 489 197" fill="none" xmlns="http://www.w3.org/2000/svg">
<path d="M21.0909 74L28.8182 27.4545H61.5455L59.8182 37.6364H39.7273L38.4545 45.6364H56.5455L54.8182 55.8182H36.7273L33.7273 74H21.0909ZM57.8977 74L63.7159 39.0909H75.8977L74.8068 45.7273H75.1705C76.2159 43.2727 77.5265 41.4773 79.1023 40.3409C80.678 39.2045 82.3977 38.6364 84.2614 38.6364C84.8068 38.6364 85.3295 38.6818 85.8295 38.7727C86.3447 38.8485 86.8523 38.9545 87.3523 39.0909L85.5341 49.8182C84.9432 49.5909 84.2083 49.4318 83.3295 49.3409C82.4508 49.2348 81.6705 49.1818 80.9886 49.1818C79.7765 49.1818 78.6402 49.4621 77.5795 50.0227C76.5341 50.5682 75.6402 51.3409 74.8977 52.3409C74.1705 53.3258 73.6856 54.4848 73.4432 55.8182L70.4432 74H57.8977ZM85.6477 74L91.4659 39.0909H104.011L98.1932 74H85.6477ZM98.2841 35.4545C96.5871 35.4545 95.2159 34.8939 94.1705 33.7727C93.125 32.6364 92.7386 31.2879 93.0114 29.7273C93.2841 28.1364 94.1174 26.7879 95.5114 25.6818C96.9053 24.5606 98.4508 24 100.148 24C101.86 24 103.223 24.5606 104.239 25.6818C105.254 26.7879 105.633 28.1364 105.375 29.7273C105.133 31.2879 104.314 32.6364 102.92 33.7727C101.542 34.8939 99.9962 35.4545 98.2841 35.4545ZM117.176 74.4545C114.691 74.4545 112.509 73.803 110.631 72.5C108.767 71.197 107.426 69.2197 106.608 66.5682C105.805 63.9167 105.737 60.5758 106.403 56.5455C107.1 52.3333 108.32 48.9091 110.062 46.2727C111.82 43.6364 113.835 41.7045 116.108 40.4773C118.396 39.25 120.691 38.6364 122.994 38.6364C124.722 38.6364 126.184 38.9394 127.381 39.5455C128.593 40.1364 129.555 40.9318 130.267 41.9318C130.979 42.9167 131.464 44 131.722 45.1818H131.903L134.858 27.4545H147.403L139.676 74H127.222L128.176 68.2727H127.903C127.222 69.4545 126.35 70.5152 125.29 71.4545C124.244 72.3788 123.04 73.1136 121.676 73.6591C120.312 74.1894 118.813 74.4545 117.176 74.4545ZM123.403 64.8182C124.555 64.8182 125.6 64.4848 126.54 63.8182C127.479 63.1364 128.275 62.1818 128.926 60.9545C129.578 59.7121 130.04 58.2424 130.312 56.5455C130.6 54.8182 130.623 53.3409 130.381 52.1136C130.138 50.8712 129.653 49.9242 128.926 49.2727C128.214 48.6061 127.282 48.2727 126.131 48.2727C124.979 48.2727 123.941 48.6061 123.017 49.2727C122.093 49.9242 121.312 50.8712 120.676 52.1136C120.055 53.3409 119.6 54.8182 119.312 56.5455C119.025 58.2727 118.987 59.7576 119.199 61C119.426 62.2273 119.896 63.1742 120.608 63.8409C121.32 64.4924 122.252 64.8182 123.403 64.8182ZM160.472 87.8182C156.956 87.8182 154.032 87.3182 151.699 86.3182C149.381 85.3333 147.669 83.9697 146.562 82.2273C145.472 80.5 145.017 78.5152 145.199 76.2727H157.29C157.32 77.0303 157.54 77.6364 157.949 78.0909C158.358 78.5455 158.926 78.8712 159.653 79.0682C160.381 79.2652 161.229 79.3636 162.199 79.3636C163.835 79.3636 165.252 78.9621 166.449 78.1591C167.646 77.3712 168.381 75.9545 168.653 73.9091L169.653 68H169.29C168.653 69.1818 167.797 70.1894 166.722 71.0227C165.646 71.8409 164.411 72.4697 163.017 72.9091C161.623 73.3333 160.138 73.5455 158.562 73.5455C156.078 73.5455 153.888 72.9697 151.994 71.8182C150.116 70.6667 148.752 68.8409 147.903 66.3409C147.07 63.8409 146.987 60.5758 147.653 56.5455C148.35 52.3333 149.578 48.9091 151.335 46.2727C153.093 43.6364 155.116 41.7045 157.403 40.4773C159.691 39.25 161.987 38.6364 164.29 38.6364C166.017 38.6364 167.479 38.9394 168.676 39.5455C169.873 40.1364 170.828 40.9318 171.54 41.9318C172.252 42.9167 172.744 44 173.017 45.1818H173.29L174.29 39.0909H186.835L181.017 73.9091C180.563 76.8788 179.403 79.3939 177.54 81.4545C175.691 83.5303 173.297 85.1061 170.358 86.1818C167.434 87.2727 164.138 87.8182 160.472 87.8182ZM164.653 64.6364C165.805 64.6364 166.85 64.3182 167.79 63.6818C168.729 63.0303 169.525 62.1061 170.176 60.9091C170.828 59.697 171.29 58.2424 171.562 56.5455C171.835 54.8182 171.85 53.3409 171.608 52.1136C171.366 50.8712 170.888 49.9242 170.176 49.2727C169.464 48.6061 168.532 48.2727 167.381 48.2727C166.229 48.2727 165.191 48.6061 164.267 49.2727C163.343 49.9242 162.562 50.8712 161.926 52.1136C161.29 53.3409 160.835 54.8182 160.562 56.5455C160.29 58.2727 160.267 59.7424 160.494 60.9545C160.722 62.1515 161.184 63.0682 161.881 63.7045C162.578 64.3258 163.502 64.6364 164.653 64.6364ZM204.034 74.6364C200.307 74.6364 197.216 73.9242 194.761 72.5C192.307 71.0606 190.58 69 189.58 66.3182C188.58 63.6212 188.398 60.3939 189.034 56.6364C189.64 53.0303 190.89 49.8788 192.784 47.1818C194.693 44.4848 197.095 42.3864 199.989 40.8864C202.898 39.3864 206.155 38.6364 209.761 38.6364C212.398 38.6364 214.708 39.0455 216.693 39.8636C218.693 40.6818 220.322 41.8712 221.58 43.4318C222.837 44.9924 223.686 46.8788 224.125 49.0909C224.58 51.2879 224.58 53.7727 224.125 56.5455L223.67 59.4545H192.489L193.58 52.5455H213.216C213.367 51.5455 213.269 50.6667 212.92 49.9091C212.587 49.1364 212.049 48.5379 211.307 48.1136C210.58 47.6742 209.701 47.4545 208.67 47.4545C207.64 47.4545 206.67 47.6742 205.761 48.1136C204.867 48.553 204.102 49.1667 203.466 49.9545C202.845 50.7424 202.428 51.6667 202.216 52.7273L200.852 60C200.67 61.1212 200.739 62.1212 201.057 63C201.375 63.8788 201.928 64.5682 202.716 65.0682C203.504 65.5682 204.519 65.8182 205.761 65.8182C206.61 65.8182 207.413 65.7045 208.17 65.4773C208.943 65.2348 209.625 64.8864 210.216 64.4318C210.822 63.9621 211.307 63.3939 211.67 62.7273H223.125C222.307 65.1515 221.011 67.2576 219.239 69.0455C217.481 70.8182 215.314 72.197 212.739 73.1818C210.178 74.1515 207.277 74.6364 204.034 74.6364ZM28.8182 104.455H44.5455L51 130.818H51.5455L66.7273 104.455H82.4545L74.7273 151H62.3636L66.8182 124.091H66.4545L51.7273 150.636H44.2727L38.3636 123.909H38L33.4545 151H21.0909L28.8182 104.455ZM90.5341 151.545C88.322 151.545 86.4205 151.182 84.8295 150.455C83.2538 149.712 82.1023 148.591 81.375 147.091C80.6629 145.576 80.5038 143.667 80.8977 141.364C81.2159 139.455 81.8144 137.826 82.6932 136.477C83.572 135.129 84.6629 134.023 85.9659 133.159C87.2689 132.295 88.7311 131.636 90.3523 131.182C91.9886 130.712 93.7159 130.409 95.5341 130.273C97.5038 130.121 99.1023 129.932 100.33 129.705C101.557 129.477 102.473 129.167 103.08 128.773C103.686 128.379 104.049 127.848 104.17 127.182V127.091C104.307 126.182 104.064 125.485 103.443 125C102.837 124.515 101.989 124.273 100.898 124.273C99.7159 124.273 98.6932 124.53 97.8295 125.045C96.9811 125.561 96.3977 126.364 96.0795 127.455H84.5341C85.0189 125.333 86.0114 123.379 87.5114 121.591C89.0265 119.788 91.0341 118.348 93.5341 117.273C96.0492 116.182 99.0492 115.636 102.534 115.636C105.019 115.636 107.201 115.932 109.08 116.523C110.958 117.098 112.511 117.909 113.739 118.955C114.981 119.985 115.852 121.197 116.352 122.591C116.867 123.97 116.989 125.47 116.716 127.091L112.716 151H100.989L101.807 146.091H101.534C100.625 147.394 99.6023 148.447 98.4659 149.25C97.3447 150.053 96.1174 150.636 94.7841 151C93.4659 151.364 92.0492 151.545 90.5341 151.545ZM95.9886 143.636C96.928 143.636 97.8523 143.439 98.7614 143.045C99.6705 142.652 100.451 142.083 101.102 141.341C101.754 140.598 102.17 139.697 102.352 138.636L102.807 135.727C102.473 135.864 102.102 135.992 101.693 136.114C101.299 136.22 100.883 136.326 100.443 136.432C100.019 136.538 99.5644 136.636 99.0795 136.727C98.6098 136.818 98.125 136.909 97.625 137C96.625 137.152 95.7841 137.402 95.1023 137.75C94.4205 138.083 93.8902 138.5 93.5114 139C93.1326 139.485 92.8977 140.03 92.8068 140.636C92.6705 141.591 92.8902 142.333 93.4659 142.864C94.0568 143.379 94.8977 143.636 95.9886 143.636ZM134.619 131.364L131.347 151H118.801L124.619 116.091H136.528L135.438 122.727H135.801C136.907 120.5 138.521 118.765 140.642 117.523C142.778 116.265 145.134 115.636 147.71 115.636C150.18 115.636 152.233 116.197 153.869 117.318C155.506 118.439 156.665 119.985 157.347 121.955C158.028 123.924 158.15 126.182 157.71 128.727L153.983 151H141.438L144.71 131.364C144.998 129.636 144.786 128.28 144.074 127.295C143.377 126.311 142.225 125.818 140.619 125.818C139.604 125.818 138.672 126.045 137.824 126.5C136.991 126.939 136.294 127.576 135.733 128.409C135.188 129.227 134.816 130.212 134.619 131.364ZM169.722 151.545C167.509 151.545 165.608 151.182 164.017 150.455C162.441 149.712 161.29 148.591 160.562 147.091C159.85 145.576 159.691 143.667 160.085 141.364C160.403 139.455 161.002 137.826 161.881 136.477C162.759 135.129 163.85 134.023 165.153 133.159C166.456 132.295 167.919 131.636 169.54 131.182C171.176 130.712 172.903 130.409 174.722 130.273C176.691 130.121 178.29 129.932 179.517 129.705C180.744 129.477 181.661 129.167 182.267 128.773C182.873 128.379 183.237 127.848 183.358 127.182V127.091C183.494 126.182 183.252 125.485 182.631 125C182.025 124.515 181.176 124.273 180.085 124.273C178.903 124.273 177.881 124.53 177.017 125.045C176.169 125.561 175.585 126.364 175.267 127.455H163.722C164.206 125.333 165.199 123.379 166.699 121.591C168.214 119.788 170.222 118.348 172.722 117.273C175.237 116.182 178.237 115.636 181.722 115.636C184.206 115.636 186.388 115.932 188.267 116.523C190.146 117.098 191.699 117.909 192.926 118.955C194.169 119.985 195.04 121.197 195.54 122.591C196.055 123.97 196.176 125.47 195.903 127.091L191.903 151H180.176L180.994 146.091H180.722C179.813 147.394 178.79 148.447 177.653 149.25C176.532 150.053 175.305 150.636 173.972 151C172.653 151.364 171.237 151.545 169.722 151.545ZM175.176 143.636C176.116 143.636 177.04 143.439 177.949 143.045C178.858 142.652 179.638 142.083 180.29 141.341C180.941 140.598 181.358 139.697 181.54 138.636L181.994 135.727C181.661 135.864 181.29 135.992 180.881 136.114C180.487 136.22 180.07 136.326 179.631 136.432C179.206 136.538 178.752 136.636 178.267 136.727C177.797 136.818 177.312 136.909 176.812 137C175.812 137.152 174.972 137.402 174.29 137.75C173.608 138.083 173.078 138.5 172.699 139C172.32 139.485 172.085 140.03 171.994 140.636C171.858 141.591 172.078 142.333 172.653 142.864C173.244 143.379 174.085 143.636 175.176 143.636ZM212.534 164.818C209.019 164.818 206.095 164.318 203.761 163.318C201.443 162.333 199.731 160.97 198.625 159.227C197.534 157.5 197.08 155.515 197.261 153.273H209.352C209.383 154.03 209.602 154.636 210.011 155.091C210.42 155.545 210.989 155.871 211.716 156.068C212.443 156.265 213.292 156.364 214.261 156.364C215.898 156.364 217.314 155.962 218.511 155.159C219.708 154.371 220.443 152.955 220.716 150.909L221.716 145H221.352C220.716 146.182 219.86 147.189 218.784 148.023C217.708 148.841 216.473 149.47 215.08 149.909C213.686 150.333 212.201 150.545 210.625 150.545C208.14 150.545 205.951 149.97 204.057 148.818C202.178 147.667 200.814 145.841 199.966 143.341C199.133 140.841 199.049 137.576 199.716 133.545C200.413 129.333 201.64 125.909 203.398 123.273C205.155 120.636 207.178 118.705 209.466 117.477C211.754 116.25 214.049 115.636 216.352 115.636C218.08 115.636 219.542 115.939 220.739 116.545C221.936 117.136 222.89 117.932 223.602 118.932C224.314 119.917 224.807 121 225.08 122.182H225.352L226.352 116.091H238.898L233.08 150.909C232.625 153.879 231.466 156.394 229.602 158.455C227.754 160.53 225.36 162.106 222.42 163.182C219.496 164.273 216.201 164.818 212.534 164.818ZM216.716 141.636C217.867 141.636 218.913 141.318 219.852 140.682C220.792 140.03 221.587 139.106 222.239 137.909C222.89 136.697 223.352 135.242 223.625 133.545C223.898 131.818 223.913 130.341 223.67 129.114C223.428 127.871 222.951 126.924 222.239 126.273C221.527 125.606 220.595 125.273 219.443 125.273C218.292 125.273 217.254 125.606 216.33 126.273C215.405 126.924 214.625 127.871 213.989 129.114C213.352 130.341 212.898 131.818 212.625 133.545C212.352 135.273 212.33 136.742 212.557 137.955C212.784 139.152 213.246 140.068 213.943 140.705C214.64 141.326 215.564 141.636 216.716 141.636ZM256.097 151.636C252.369 151.636 249.278 150.924 246.824 149.5C244.369 148.061 242.642 146 241.642 143.318C240.642 140.621 240.46 137.394 241.097 133.636C241.703 130.03 242.953 126.879 244.847 124.182C246.756 121.485 249.157 119.386 252.051 117.886C254.96 116.386 258.218 115.636 261.824 115.636C264.46 115.636 266.771 116.045 268.756 116.864C270.756 117.682 272.384 118.871 273.642 120.432C274.9 121.992 275.748 123.879 276.188 126.091C276.642 128.288 276.642 130.773 276.188 133.545L275.733 136.455H244.551L245.642 129.545H265.278C265.43 128.545 265.331 127.667 264.983 126.909C264.65 126.136 264.112 125.538 263.369 125.114C262.642 124.674 261.763 124.455 260.733 124.455C259.703 124.455 258.733 124.674 257.824 125.114C256.93 125.553 256.165 126.167 255.528 126.955C254.907 127.742 254.491 128.667 254.278 129.727L252.915 137C252.733 138.121 252.801 139.121 253.119 140C253.438 140.879 253.991 141.568 254.778 142.068C255.566 142.568 256.581 142.818 257.824 142.818C258.672 142.818 259.475 142.705 260.233 142.477C261.006 142.235 261.688 141.886 262.278 141.432C262.884 140.962 263.369 140.394 263.733 139.727H275.188C274.369 142.152 273.074 144.258 271.301 146.045C269.544 147.818 267.377 149.197 264.801 150.182C262.241 151.152 259.339 151.636 256.097 151.636ZM278.398 151L284.216 116.091H296.398L295.307 122.727H295.67C296.716 120.273 298.027 118.477 299.602 117.341C301.178 116.205 302.898 115.636 304.761 115.636C305.307 115.636 305.83 115.682 306.33 115.773C306.845 115.848 307.352 115.955 307.852 116.091L306.034 126.818C305.443 126.591 304.708 126.432 303.83 126.341C302.951 126.235 302.17 126.182 301.489 126.182C300.277 126.182 299.14 126.462 298.08 127.023C297.034 127.568 296.14 128.341 295.398 129.341C294.67 130.326 294.186 131.485 293.943 132.818L290.943 151H278.398Z" fill="#45A1C9"/>
<path d="M333 38C333 18.67 348.67 3 368 3H430C449.33 3 465 18.67 465 38V169C465 182.807 453.807 194 440 194H358C344.193 194 333 182.807 333 169V38Z" fill="#2453CA"/>
<path d="M348.915 45.4472C348.915 31.64 360.108 20.4471 373.915 20.4471H425.021C438.829 20.4471 450.021 31.64 450.021 45.4471V76.4616H348.915V45.4472Z" fill="white"/>
<path d="M348.915 93.9087H450.021V165.226C450.021 173.51 443.306 180.226 435.021 180.226H363.915C355.631 180.226 348.915 173.51 348.915 165.226V93.9087Z" fill="white"/>
<rect x="419.127" y="37.8942" width="18.7234" height="99.1731" rx="9.3617" fill="#2453CA"/>
</svg>
